<svg width="186" height="186" viewBox="0 0 186 186" fill="none" xmlns="http://www.w3.org/2000/svg">
<path fill-rule="evenodd" clip-rule="evenodd" d="M89.125 158.875C89.125 161.015 90.8602 162.75 93 162.75C95.1398 162.75 96.875 161.015 96.875 158.875L96.875 135.625C96.875 133.485 95.1398 131.75 93 131.75C90.8602 131.75 89.125 133.485 89.125 135.625L89.125 158.875ZM91.3717 119.766C92.4048 120.245 93.5952 120.245 94.6283 119.766L133.379 101.819C134.748 101.184 135.625 99.8122 135.625 98.3025L135.625 53.4339C135.625 52.0513 134.888 50.7733 133.692 50.0805L94.9414 27.6466C93.7409 26.9514 92.2591 26.9514 91.0586 27.6466L52.3086 50.0805C51.112 50.7734 50.375 52.0513 50.375 53.4339L50.375 98.3026C50.375 99.8123 51.2515 101.184 52.6217 101.819L91.3717 119.766ZM96.875 76.4685L127.875 92.0227L127.875 55.6683L96.875 37.7208L96.875 76.4685ZM58.125 55.6683L89.125 37.7208L89.125 76.4685L58.125 92.0227L58.125 55.6683ZM63.1687 98.163L93 83.1947L122.831 98.163L93 111.98L63.1687 98.163ZM127.875 143.375C125.735 143.375 124 141.64 124 139.5L124 116.25C124 114.11 125.735 112.375 127.875 112.375C130.015 112.375 131.75 114.11 131.75 116.25L131.75 139.5C131.75 141.64 130.015 143.375 127.875 143.375ZM54.25 131.75C54.25 133.89 55.9852 135.625 58.125 135.625C60.2648 135.625 62 133.89 62 131.75L62 120.125C62 117.985 60.2648 116.25 58.125 116.25C55.9852 116.25 54.25 117.985 54.25 120.125L54.25 131.75Z" fill="url(#paint0_linear_2_17)"/>
<defs>
<linearGradient id="paint0_linear_2_17" x1="93" y1="27.1252" x2="93" y2="162.75" gradientUnits="userSpaceOnUse">
<stop stop-color="#FF7171"/>
<stop offset="0.25" stop-color="#CCFF5F"/>
<stop offset="0.5" stop-color="#FF5BDB"/>
<stop offset="0.75" stop-color="#7B89FF"/>
<stop offset="1" stop-color="#6ADCFF"/>
</linearGradient>
</defs>
</svg>
