<svg width="256" height="256" viewBox="0 0 256 256" fill="none" xmlns="http://www.w3.org/2000/svg">
<g filter="url(#filter0_i_16_26)">
<path fill-rule="evenodd" clip-rule="evenodd" d="M122.667 218.667C122.667 221.612 125.055 224 128 224C130.945 224 133.333 221.612 133.333 218.667L133.333 186.667C133.333 183.721 130.945 181.333 128 181.333C125.055 181.333 122.667 183.721 122.667 186.667L122.667 218.667ZM125.759 164.839C127.181 165.498 128.819 165.498 130.241 164.839L183.575 140.138C185.46 139.264 186.667 137.376 186.667 135.298L186.667 73.5435C186.667 71.6405 185.653 69.8816 184.006 68.928L130.672 38.0512C129.02 37.0944 126.98 37.0944 125.328 38.0512L71.9947 68.928C70.3477 69.8816 69.3333 71.6405 69.3333 73.5435L69.3333 135.298C69.3333 137.376 70.5397 139.264 72.4256 140.138L125.759 164.839ZM133.333 105.247L176 126.655L176 76.6187L133.333 51.9168L133.333 105.247ZM80 76.6187L122.667 51.9168L122.667 105.247L80 126.655L80 76.6187ZM86.9419 135.106L128 114.505L169.058 135.106L128 154.122L86.9419 135.106ZM176 197.333C173.054 197.333 170.667 194.946 170.667 192L170.667 160C170.667 157.055 173.054 154.667 176 154.667C178.945 154.667 181.333 157.055 181.333 160L181.333 192C181.333 194.946 178.945 197.333 176 197.333ZM74.6667 181.333C74.6667 184.279 77.0549 186.667 80 186.667C82.9451 186.667 85.3333 184.279 85.3333 181.333L85.3333 165.333C85.3333 162.388 82.9451 160 80 160C77.0549 160 74.6667 162.388 74.6667 165.333L74.6667 181.333Z" fill="white"/>
</g>
<defs>
<filter id="filter0_i_16_26" x="69.3333" y="37.3336" width="117.333" height="190.176" filterUnits="userSpaceOnUse" color-interpolation-filters="sRGB">
<feFlood flood-opacity="0" result="BackgroundImageFix"/>
<feBlend mode="normal" in="SourceGraphic" in2="BackgroundImageFix" result="shape"/>
<feColorMatrix in="SourceAlpha" type="matrix" values="0 0 0 0 0 0 0 0 0 0 0 0 0 0 0 0 0 0 127 0" result="hardAlpha"/>
<feOffset dy="3.51"/>
<feGaussianBlur stdDeviation="3.44"/>
<feComposite in2="hardAlpha" operator="arithmetic" k2="-1" k3="1"/>
<feColorMatrix type="matrix" values="0 0 0 0 0 0 0 0 0 0 0 0 0 0 0 0 0 0 0.3 0"/>
<feBlend mode="normal" in2="shape" result="effect1_innerShadow_16_26"/>
</filter>
</defs>
</svg>
